<svg width="229" height="231" viewBox="0 0 229 231" fill="none" xmlns="http://www.w3.org/2000/svg">
<path d="M67.9241 1.30423C75.9633 -0.873682 84.685 -0.371812 92.2625 3.17106C96.3373 5.34897 99.9906 8.18929 103.323 11.3809C106.233 14.6929 108.632 18.4264 110.459 22.441C110.97 23.6454 111.502 24.8398 112.014 26.0542C112.305 26.0241 112.877 25.9538 113.168 25.9237C113.318 25.3994 113.47 24.8795 113.625 24.3629C113.978 23.1903 114.489 22.0673 115.212 21.0791C117.836 17.4932 121.257 14.5747 125.252 12.5551C127.27 11.8927 129.287 11.1902 131.314 10.5277C132.98 10.1765 134.657 9.85532 136.323 9.47393C138.661 9.21298 141.03 9.18289 143.388 9.24311C150.976 10.2769 158.031 14.2413 162.749 20.2933C163.933 22.0597 165.107 23.8361 166.191 25.6728C168.128 29.848 169.553 34.2339 170.396 38.7603C170.718 40.7977 170.938 42.8552 171.199 44.9127C174.301 65.0559 172.835 85.5202 172.905 105.824C179.74 98.2766 188.061 91.7429 197.565 87.9792C198.152 87.7578 198.738 87.5384 199.322 87.3174C200.743 86.7797 202.225 86.3968 203.743 86.319C205.656 86.221 207.574 86.2437 209.489 86.3846C210.256 86.441 211.009 86.6117 211.737 86.8609C212.655 87.1754 213.581 87.4871 214.507 87.7885C219.535 90.3478 223.299 94.8241 225.627 99.9025C226.4 102.572 227.082 105.272 227.735 107.982C228.046 111.595 228.237 115.288 227.524 118.881C227.052 122.575 226.37 126.248 225.517 129.881C223.59 137.971 220.699 145.769 217.809 153.547C217.297 155.093 216.323 156.719 215.801 158.275C215.35 159.178 214.888 160.091 214.436 161.005C213.202 163.724 212.018 166.474 210.733 169.184C210.071 170.499 209.408 171.834 208.776 173.189C207.752 175.206 206.688 177.213 205.624 179.221C203.356 183.617 200.917 187.922 198.358 192.158C195.397 197.708 191.844 202.917 188.703 208.367C185.27 213.676 181.758 218.935 178.175 224.134C176.679 226.342 175.103 228.5 173.498 230.628C153.073 230.617 132.639 230.607 112.205 230.638H107.207C107.207 230.638 104.403 230.567 103.058 230.638C103.058 230.638 99.2244 230.597 97.1971 230.638H65.8689C65.8689 230.638 53.389 231.019 47.0459 230.638C46.4638 229.022 45.6632 226.824 45.0409 225.238C44.0674 222.879 43.124 220.511 42.1404 218.172C41.2772 216.255 40.4743 214.318 39.6513 212.401C39.1495 210.976 38.6075 209.571 38.0856 208.166C37.2727 206.219 36.4999 204.262 35.707 202.325C34.4826 199.243 33.1979 196.192 32.0638 193.091C31.5519 191.827 31.0501 190.562 30.5482 189.307C28.9725 184.931 27.2563 180.596 25.5702 176.26C25.0684 174.835 24.5364 173.43 24.0145 172.025C22.4689 168.1 21.2244 164.066 19.5684 160.192C19.4379 159.65 19.187 158.556 19.0666 158.014C18.5146 156.739 18.0027 155.454 17.4808 154.19C15.7646 148.69 13.7272 143.29 12.0411 137.78C11.5292 136.214 11.0675 134.659 10.5456 133.113C9.72263 130.283 8.94982 127.433 8.17701 124.582C7.78706 123.144 7.57483 121.902 7.01278 120.818C5.67793 116.613 4.81479 112.267 3.56023 108.042C3.08852 104.64 2.35586 101.288 1.55294 97.9555C-0.0930416 86.9455 -1.55837 74.992 3.41972 64.5942C6.9927 58.773 13.4261 56.0532 19.7691 54.4272C23.1715 54.0559 26.614 53.9957 30.0163 54.3771C31.2809 54.8488 32.5656 55.3004 33.8402 55.7722C35.3858 56.6353 36.9114 57.5386 38.457 58.4218C41.7791 61.1718 44.2882 64.6745 46.5464 68.3278C45.7936 54.4373 44.0172 40.3662 46.7571 26.5661C47.1486 25.2011 47.4095 23.796 47.6906 22.421C48.4232 20.1829 49.196 17.9648 50.0993 15.7969C51.5144 13.2577 53.0801 10.8088 54.977 8.61081C55.8 7.80789 56.623 7.01501 57.446 6.22212C59.5537 4.88727 61.7215 3.64274 63.9797 2.56884C65.2845 2.1473 66.6193 1.75587 67.9241 1.30423Z" fill="#96BAFF"/>
<path d="M115.143 160.217C108.145 179.243 92.0802 190.658 79.2626 185.713C66.445 180.768 61.7279 161.336 68.7267 142.311C75.7255 123.285 91.7899 111.871 104.608 116.815C117.425 121.76 122.142 141.192 115.143 160.217Z" fill="white"/>
<path d="M157.845 159.723C150.846 178.749 134.782 190.163 121.964 185.219C109.147 180.274 104.43 160.842 111.428 141.817C118.427 122.791 134.492 111.376 147.309 116.321C160.127 121.266 164.844 140.698 157.845 159.723Z" fill="white"/>
</svg>
